<svg xmlns="http://www.w3.org/2000/svg" class="editor-view__logo-preview" data-v-04588dbe="" data-v-0a059b40="" width="98.30195617675781" height="107.0300064086914" viewBox="0 0 98.30195617675781 107.0300064086914"><svg id="mark" viewBox="0 0 100 100" width="54" height="54" x="22.150978088378906" y="0" data-v-04588dbe="" style="fill: rgb(0, 0, 0);"><rect x="0" y="0" width="100%" height="100%" fill="none" data-v-04588dbe=""></rect><g data-v-04588dbe=""><path xmlns="http://www.w3.org/2000/svg" d="M50,50c-12.4,0-22.5,10.1-22.5,22.5S37.6,95,50,95s22.5-10.1,22.5-22.5S62.4,50,50,50z M50,90c-9.6,0-17.5-7.9-17.5-17.5  S40.4,55,50,55s17.5,7.9,17.5,17.5S59.6,90,50,90z"></path><path xmlns="http://www.w3.org/2000/svg" d="M55.3,77.8c-2.9,2.9-7.7,2.9-10.6,0c-1-1-2.6-1-3.5,0c-1,1-1,2.6,0,3.5c2.4,2.4,5.6,3.7,8.8,3.7s6.4-1.2,8.8-3.7  c1-1,1-2.6,0-3.5C57.9,76.8,56.3,76.8,55.3,77.8z"></path><circle xmlns="http://www.w3.org/2000/svg" cx="45" cy="67.5" r="2.5"></circle><circle xmlns="http://www.w3.org/2000/svg" cx="55" cy="67.5" r="2.5"></circle><circle xmlns="http://www.w3.org/2000/svg" cx="50" cy="35" r="2.5"></circle><path xmlns="http://www.w3.org/2000/svg" d="M52.5,27c0-1.3,0.8-2.4,2.1-3.1c4-2.1,6.1-6.4,5.3-10.9C59,9.1,55.9,6,52,5.2c-3-0.6-6,0.2-8.3,2.1C41.3,9.2,40,12,40,15  c0,1.4,1.1,2.5,2.5,2.5S45,16.4,45,15c0-1.5,0.7-2.9,1.8-3.9c1.2-1,2.7-1.3,4.2-1c1.9,0.4,3.5,2,3.9,3.9c0.5,2.6-1,4.6-2.6,5.5  c-2.9,1.5-4.8,4.4-4.8,7.5v0.5c0,1.4,1.1,2.5,2.5,2.5s2.5-1.1,2.5-2.5V27z"></path><path xmlns="http://www.w3.org/2000/svg" d="M27.5,22.5c1.4,0,2.5-1.1,2.5-2.5s-1.1-2.5-2.5-2.5h-10c-1.4,0-2.5,1.1-2.5,2.5s1.1,2.5,2.5,2.5H27.5z"></path><path xmlns="http://www.w3.org/2000/svg" d="M82.5,17.5h-10c-1.4,0-2.5,1.1-2.5,2.5s1.1,2.5,2.5,2.5h10c1.4,0,2.5-1.1,2.5-2.5S83.9,17.5,82.5,17.5z"></path><path xmlns="http://www.w3.org/2000/svg" d="M31.2,26.8c-0.5-1.3-1.9-2-3.2-1.5l-9.4,3.4c-1.3,0.5-2,1.9-1.5,3.2c0.4,1,1.3,1.6,2.3,1.6c0.3,0,0.6,0,0.9-0.2l9.4-3.4  C31,29.6,31.7,28.1,31.2,26.8z"></path><path xmlns="http://www.w3.org/2000/svg" d="M68.8,13.2c0.4,1,1.3,1.6,2.3,1.6c0.3,0,0.6,0,0.9-0.2l9.4-3.4c1.3-0.5,2-1.9,1.5-3.2c-0.5-1.3-1.9-2-3.2-1.5L70.3,10  C69,10.4,68.3,11.9,68.8,13.2z"></path><path xmlns="http://www.w3.org/2000/svg" d="M18.6,11.2l9.4,3.4c0.3,0.1,0.6,0.2,0.9,0.2c1,0,2-0.6,2.3-1.6c0.5-1.3-0.2-2.7-1.5-3.2l-9.4-3.4C19,6.1,17.6,6.7,17.1,8  C16.6,9.3,17.3,10.8,18.6,11.2z"></path><path xmlns="http://www.w3.org/2000/svg" d="M81.4,28.8L72,25.3c-1.3-0.5-2.7,0.2-3.2,1.5c-0.5,1.3,0.2,2.7,1.5,3.2l9.4,3.4c0.3,0.1,0.6,0.2,0.9,0.2c1,0,2-0.6,2.3-1.6  C83.4,30.7,82.7,29.2,81.4,28.8z"></path></g></svg><svg id="name" viewBox="0 0 98.302001953125 37.029998779296875" width="98.302" height="37.02999804356195" x="0" y="62" data-v-04588dbe="" style="fill: rgb(0, 0, 0);"><rect x="0" y="0" width="100%" height="100%" fill="none" data-v-04588dbe=""></rect><g data-v-04588dbe=""><path xmlns="http://www.w3.org/2000/svg" d="M8.10 36.94Q5.57 36.94 3.91 35.42L3.91 35.42Q2.58 34.32 1.47 31.65L1.47 31.65Q0.78 29.90 0.37 26.73L0.37 26.73Q0.05 24.15 0.05 21.85L0.05 21.85Q0 21.25 0 19.78L0 19.78L0 18.22L0 16.38Q0 14.40 0.14 11.64L0.14 11.64Q0.32 9.29 0.87 6.85L0.87 6.85Q1.47 4.46 2.62 2.81L2.62 2.81Q3.77 1.06 5.70 0.32L5.70 0.32Q6.85 0 7.87 0L7.87 0Q9.80 0 9.80 1.29L9.80 1.29Q9.80 1.79 9.45 2.09Q9.11 2.39 8.56 2.39L8.56 2.39Q8.37 2.39 7.91 2.25L7.91 2.25L7.27 2.16Q6.39 2.16 5.70 2.69Q5.01 3.22 4.55 4.23L4.55 4.23Q3.50 6.44 3.13 9.06L3.13 9.06Q2.62 12.28 2.58 14.67L2.58 14.67Q2.48 16.74 2.48 19.04L2.48 19.04L2.48 20.29Q2.44 20.93 2.44 21.90L2.44 21.90Q2.44 24.24 2.67 26.50L2.67 26.50Q2.85 29.16 3.68 31.10L3.68 31.10Q4.42 33.26 6.07 34.13L6.07 34.13Q6.85 34.59 8.00 34.59L8.00 34.59Q10.03 34.59 11.41 32.66L11.41 32.66Q11.36 31.05 11.18 29.51Q10.99 27.97 10.63 27.42L10.63 27.42Q10.58 27.42 10.42 27.44Q10.26 27.46 9.94 27.51L9.94 27.51L8.83 27.60Q7.27 27.60 7.27 26.27L7.27 26.27Q7.27 25.85 7.73 25.53Q8.19 25.21 8.97 25.07L8.97 25.07Q10.26 24.75 11.27 24.75L11.27 24.75Q12.19 24.75 12.70 25.44Q13.20 26.13 13.20 27.19L13.20 27.19Q13.20 28.70 13.66 31.33L13.66 31.33Q14.12 33.90 14.12 35.42L14.12 35.42Q14.12 35.93 13.80 36.29Q13.48 36.66 13.02 36.66L13.02 36.66Q11.87 36.66 11.45 35.70L11.45 35.70L11.45 35.65L10.44 36.16Q9.06 36.94 8.10 36.94L8.10 36.94ZM23.83 37.03Q22.59 37.03 21.57 36.20Q20.56 35.37 19.83 33.95L19.83 33.95Q18.49 31.46 17.85 27.14L17.85 27.14Q17.39 24.15 17.16 20.24L17.16 20.24L17.11 17.80L17.11 15.32Q17.07 14.12 17.07 12.42L17.07 12.42Q17.07 9.66 17.30 7.54L17.30 7.54Q17.48 5.34 18.22 3.17L18.22 3.17Q18.95 1.29 20.33 0.51L20.33 0.51Q21.16 0.14 21.99 0.14L21.99 0.14Q24.43 0.14 25.85 2.07L25.85 2.07Q27.42 4.23 27.92 6.90L27.92 6.90Q28.66 10.12 28.75 13.06L28.75 13.06Q28.93 16.33 28.93 19.23L28.93 19.23L28.93 21.85Q28.93 22.63 28.70 24.79L28.70 24.79Q28.52 26.50 28.52 27.69L28.52 27.69L28.52 27.88Q28.24 29.16 28.24 30.91L28.24 30.91Q28.24 32.20 27.69 33.58Q27.14 34.96 26.13 35.93L26.13 35.93Q25.12 37.03 23.83 37.03L23.83 37.03ZM23.92 34.50Q24.84 34.50 25.48 32.80L25.48 32.80Q26.04 31.28 26.29 29.09Q26.54 26.91 26.73 24.15L26.73 24.15Q26.82 22.95 26.82 21.07L26.82 21.07L26.77 16.84Q26.68 14.35 26.22 10.63L26.22 10.63Q25.85 7.45 24.84 5.01L24.84 5.01Q24.38 3.86 23.69 3.22Q23 2.58 22.22 2.58L22.22 2.58Q21.07 2.58 20.52 4.37L20.52 4.37Q19.83 6.26 19.60 8.51L19.60 8.51Q19.32 10.95 19.27 13.16L19.27 13.16L19.23 14.67Q19.18 15.32 19.18 16.42L19.18 16.42L19.18 16.61Q19.18 19.69 19.83 24.20L19.83 24.20Q20.56 30.31 21.99 32.89L21.99 32.89Q22.91 34.50 23.92 34.50L23.92 34.50ZM36.25 36.25Q35.65 36.25 35.17 35.81Q34.68 35.37 34.68 34.78L34.68 34.78Q34.68 34.36 34.87 33.76L34.87 33.76Q35.01 33.12 35.01 32.80L35.01 32.80Q35.01 28.70 34.55 17.07L34.55 17.07Q34.09 7.13 34.09 1.38L34.09 1.38Q34.09 0.97 34.41 0.71Q34.73 0.46 35.19 0.46L35.19 0.46Q35.74 0.46 36.16 0.85Q36.57 1.24 36.57 1.79L36.57 1.79Q36.57 4.55 36.85 10.07L36.85 10.07Q37.08 16.19 37.08 18.35L37.08 18.35L37.12 18.91L37.12 19.46L37.12 19.78L37.12 20.01Q37.26 24.01 37.26 31.97L37.26 31.97L37.26 33.17L40.80 33.17Q41.77 33.86 41.77 34.55L41.77 34.55Q41.77 35.05 41.42 35.44Q41.08 35.83 40.62 35.83L40.62 35.83Q40.48 35.83 40.11 35.74L40.11 35.74L39.93 35.70Q39.65 35.74 39.05 35.74L39.05 35.74L38.27 35.74Q37.95 35.70 37.54 35.70L37.54 35.70Q37.08 36.25 36.25 36.25L36.25 36.25ZM47.75 36.25Q47.15 36.25 46.67 35.81Q46.18 35.37 46.18 34.78L46.18 34.78Q46.18 34.36 46.37 33.76L46.37 33.76Q46.51 33.12 46.51 32.80L46.51 32.80Q46.51 28.70 46.05 17.07L46.05 17.07Q45.59 7.13 45.59 1.38L45.59 1.38Q45.59 0.97 45.91 0.71Q46.23 0.46 46.69 0.46L46.69 0.46Q47.24 0.46 47.66 0.85Q48.07 1.24 48.07 1.79L48.07 1.79Q48.07 4.55 48.35 10.07L48.35 10.07Q48.58 16.19 48.58 18.35L48.58 18.35L48.62 18.91L48.62 19.46L48.62 19.78L48.62 20.01Q48.76 24.01 48.76 31.97L48.76 31.97L48.76 33.17L52.30 33.17Q53.27 33.86 53.27 34.55L53.27 34.55Q53.27 35.05 52.92 35.44Q52.58 35.83 52.12 35.83L52.12 35.83Q51.98 35.83 51.61 35.74L51.61 35.74L51.43 35.70Q51.15 35.74 50.55 35.74L50.55 35.74L49.77 35.74Q49.45 35.70 49.04 35.70L49.04 35.70Q48.58 36.25 47.75 36.25L47.75 36.25ZM66.24 35.74Q65.50 35.74 65.16 35.47Q64.81 35.19 64.81 34.55L64.81 34.55L64.81 28.52Q64.22 28.11 62.56 27.78Q60.90 27.46 59.43 27.37L59.43 27.37Q58.93 28.34 58.70 29.72L58.70 29.72L58.51 30.64Q58.47 30.96 58.24 32.06Q58.01 33.17 57.73 33.97Q57.45 34.78 57.18 35.24L57.18 35.24Q55.43 35.24 55.15 34.32L55.15 34.32Q55.66 33.58 56.30 29.99L56.30 29.99L57.82 21.57Q58.83 15.59 59.69 11.36Q60.54 7.13 61.50 4.28L61.50 4.28Q62.56 1.10 63.53 1.10L63.53 1.10Q64.49 1.10 65.00 1.47L65.00 1.47Q65.00 3.31 65.87 10.35L65.87 10.35Q66.79 17.25 66.79 19.78L66.79 19.78Q66.79 22.22 67.30 26.77L67.30 26.77Q67.76 31.42 67.76 34.18L67.76 34.18Q67.76 35.74 66.24 35.74L66.24 35.74ZM63.85 25.85Q64.22 25.85 64.77 25.71L64.77 25.71Q64.63 23.69 64.31 20.70L64.31 20.70Q63.25 10.30 63.25 7.96L63.25 7.96L63.25 7.59Q62.79 8.05 61.98 11.75Q61.18 15.46 60.49 19.69Q59.80 23.92 59.75 25.30L59.75 25.30Q61.69 25.85 63.85 25.85L63.85 25.85ZM75.39 36.11Q73.28 36.11 73.28 34.96L73.28 34.96L73.37 29.30L73.46 23.64Q73.46 20.56 73.32 14.31L73.32 14.31Q73.19 8.10 73.19 4.97L73.19 4.97L73.19 4.69Q73.19 3.50 73.42 2.48L73.42 2.48Q73.69 1.24 74.89 1.24L74.89 1.24Q78.11 1.24 79.99 3.31Q81.88 5.38 81.88 8.79L81.88 8.79Q81.88 10.86 80.78 13.11Q79.67 15.36 78.15 16.47L78.15 16.47Q80.82 18.26 82.09 21.09Q83.35 23.92 83.35 27.32L83.35 27.32Q83.35 28.93 82.25 31.33L82.25 31.33Q80.91 34.18 78.61 35.42L78.61 35.42Q77.23 36.11 75.58 36.11L75.58 36.11L75.39 36.11ZM75.85 15.78Q77.05 15.50 77.88 13.80L77.88 13.80Q78.57 12.51 79.17 10.67L79.17 10.67Q79.30 10.17 79.63 9.38L79.63 9.38L79.63 7.77Q79.63 6.39 78.61 5.11Q77.60 3.82 76.31 3.82L76.31 3.82Q75.67 3.82 75.67 5.24L75.67 5.24Q75.67 8.28 75.76 10.67L75.76 10.67L75.85 15.78ZM76.04 33.72Q78.29 33.40 79.63 31.65Q80.96 29.90 80.96 27.46L80.96 27.46Q80.96 25.35 80.62 23.57Q80.27 21.80 79.72 20.88L79.72 20.88Q79.21 20.01 78.71 19.41Q78.20 18.81 77.83 18.63L77.83 18.63L77.46 18.49L75.81 18.49Q76.04 23.78 76.04 33.72L76.04 33.72ZM96.78 35.74Q96.05 35.74 95.70 35.47Q95.36 35.19 95.36 34.55L95.36 34.55L95.36 28.52Q94.76 28.11 93.10 27.78Q91.45 27.46 89.98 27.37L89.98 27.37Q89.47 28.34 89.24 29.72L89.24 29.72L89.06 30.64Q89.01 30.96 88.78 32.06Q88.55 33.17 88.27 33.97Q88.00 34.78 87.72 35.24L87.72 35.24Q85.97 35.24 85.70 34.32L85.70 34.32Q86.20 33.58 86.85 29.99L86.85 29.99L88.37 21.57Q89.38 15.59 90.23 11.36Q91.08 7.13 92.05 4.28L92.05 4.28Q93.10 1.10 94.07 1.10L94.07 1.10Q95.04 1.10 95.54 1.47L95.54 1.47Q95.54 3.31 96.42 10.35L96.42 10.35Q97.34 17.25 97.34 19.78L97.34 19.78Q97.34 22.22 97.84 26.77L97.84 26.77Q98.30 31.42 98.30 34.18L98.30 34.18Q98.30 35.74 96.78 35.74L96.78 35.74ZM94.39 25.85Q94.76 25.85 95.31 25.71L95.31 25.71Q95.17 23.69 94.85 20.70L94.85 20.70Q93.79 10.30 93.79 7.96L93.79 7.96L93.79 7.59Q93.33 8.05 92.53 11.75Q91.72 15.46 91.03 19.69Q90.34 23.92 90.30 25.30L90.30 25.30Q92.23 25.85 94.39 25.85L94.39 25.85Z"></path></g></svg><svg id="slogan" viewBox="0 0 0 0" width="0" height="NaN" x="49.150978088378906" y="107.0300064086914" data-v-04588dbe="" style="fill: rgb(0, 0, 0);"><rect x="0" y="0" width="100%" height="100%" fill="none" data-v-04588dbe=""></rect><g data-v-04588dbe=""><path xmlns="http://www.w3.org/2000/svg" d=""></path></g></svg></svg>