<svg xmlns="http://www.w3.org/2000/svg" class="editor-view__logo-preview" data-v-04588dbe="" data-v-0a059b40="" width="54" height="62" viewBox="0 0 54 62"><svg id="mark" viewBox="0 0 100 100" width="54" height="54" x="0" y="0" data-v-04588dbe="" style="fill: rgb(255, 255, 255);"><rect x="0" y="0" width="100%" height="100%" fill="none" data-v-04588dbe=""></rect><g data-v-04588dbe=""><path xmlns="http://www.w3.org/2000/svg" d="M50,50c-12.4,0-22.5,10.1-22.5,22.5S37.6,95,50,95s22.5-10.1,22.5-22.5S62.4,50,50,50z M50,90c-9.6,0-17.5-7.9-17.5-17.5  S40.4,55,50,55s17.5,7.9,17.5,17.5S59.6,90,50,90z"></path><path xmlns="http://www.w3.org/2000/svg" d="M55.3,77.8c-2.9,2.9-7.7,2.9-10.6,0c-1-1-2.6-1-3.5,0c-1,1-1,2.6,0,3.5c2.4,2.4,5.6,3.7,8.8,3.7s6.4-1.2,8.8-3.7  c1-1,1-2.6,0-3.5C57.9,76.8,56.3,76.8,55.3,77.8z"></path><circle xmlns="http://www.w3.org/2000/svg" cx="45" cy="67.5" r="2.5"></circle><circle xmlns="http://www.w3.org/2000/svg" cx="55" cy="67.5" r="2.5"></circle><circle xmlns="http://www.w3.org/2000/svg" cx="50" cy="35" r="2.5"></circle><path xmlns="http://www.w3.org/2000/svg" d="M52.5,27c0-1.3,0.8-2.4,2.1-3.1c4-2.1,6.1-6.4,5.3-10.9C59,9.1,55.9,6,52,5.2c-3-0.6-6,0.2-8.3,2.1C41.3,9.2,40,12,40,15  c0,1.4,1.1,2.5,2.5,2.5S45,16.4,45,15c0-1.5,0.7-2.9,1.8-3.9c1.2-1,2.7-1.3,4.2-1c1.9,0.4,3.5,2,3.9,3.9c0.5,2.6-1,4.6-2.6,5.5  c-2.9,1.5-4.8,4.4-4.8,7.5v0.5c0,1.4,1.1,2.5,2.5,2.5s2.5-1.1,2.5-2.5V27z"></path><path xmlns="http://www.w3.org/2000/svg" d="M27.5,22.5c1.4,0,2.5-1.1,2.5-2.5s-1.1-2.5-2.5-2.5h-10c-1.4,0-2.5,1.1-2.5,2.5s1.1,2.5,2.5,2.5H27.5z"></path><path xmlns="http://www.w3.org/2000/svg" d="M82.5,17.5h-10c-1.4,0-2.5,1.1-2.5,2.5s1.1,2.5,2.5,2.5h10c1.4,0,2.5-1.1,2.5-2.5S83.9,17.5,82.5,17.5z"></path><path xmlns="http://www.w3.org/2000/svg" d="M31.2,26.8c-0.5-1.3-1.9-2-3.2-1.5l-9.4,3.4c-1.3,0.5-2,1.9-1.5,3.2c0.4,1,1.3,1.6,2.3,1.6c0.3,0,0.6,0,0.9-0.2l9.4-3.4  C31,29.6,31.7,28.1,31.2,26.8z"></path><path xmlns="http://www.w3.org/2000/svg" d="M68.8,13.2c0.4,1,1.3,1.6,2.3,1.6c0.3,0,0.6,0,0.9-0.2l9.4-3.4c1.3-0.5,2-1.9,1.5-3.2c-0.5-1.3-1.9-2-3.2-1.5L70.3,10  C69,10.4,68.3,11.9,68.8,13.2z"></path><path xmlns="http://www.w3.org/2000/svg" d="M18.6,11.2l9.4,3.4c0.3,0.1,0.6,0.2,0.9,0.2c1,0,2-0.6,2.3-1.6c0.5-1.3-0.2-2.7-1.5-3.2l-9.4-3.4C19,6.1,17.6,6.7,17.1,8  C16.6,9.3,17.3,10.8,18.6,11.2z"></path><path xmlns="http://www.w3.org/2000/svg" d="M81.4,28.8L72,25.3c-1.3-0.5-2.7,0.2-3.2,1.5c-0.5,1.3,0.2,2.7,1.5,3.2l9.4,3.4c0.3,0.1,0.6,0.2,0.9,0.2c1,0,2-0.6,2.3-1.6  C83.4,30.7,82.7,29.2,81.4,28.8z"></path></g></svg><!----><svg id="slogan" viewBox="0 0 0 0" width="0" height="NaN" x="27" y="62" data-v-04588dbe="" style="fill: rgb(0, 0, 0);"><rect x="0" y="0" width="100%" height="100%" fill="none" data-v-04588dbe=""></rect><g data-v-04588dbe=""><path xmlns="http://www.w3.org/2000/svg" d=""></path></g></svg></svg>